<?xml version="1.0" encoding="UTF-8"?>
<svg xmlns="http://www.w3.org/2000/svg" xmlns:xlink="http://www.w3.org/1999/xlink" width="23pt" height="23pt" viewBox="0 0 23 23" version="1.1">
<g id="surface1">
<path style=" stroke:none;fill-rule:nonzero;fill:rgb(37.647059%,10.196078%,9.019608%);fill-opacity:1;" d="M 5.199219 5.199219 L 4.101562 19.300781 L 15.800781 22 L 16.300781 6.5 L 13.699219 6.199219 L 13.800781 4.199219 L 14.699219 4.300781 L 15 1.699219 L 11.800781 1.398438 L 11.800781 1.5 L 10.898438 1.398438 L 11 1.199219 L 11.800781 0.5 L 15.398438 0.800781 L 16 1.5 L 15.800781 4.398438 L 18.898438 4.699219 L 19.601562 20.800781 L 16 22.398438 L 3.601562 19.699219 L 4.800781 4.699219 L 7 4.5 L 7 3.5 L 8 3.601562 L 7.898438 4.800781 L 7.398438 4 L 7.398438 4.800781 L 7.898438 4.699219 L 7.898438 5.5 Z M 8.101562 6.601562 L 8.398438 2.300781 L 9.300781 1.601562 L 13.101562 2 L 13.699219 2.800781 L 13.5 7.300781 L 12.398438 7.199219 L 12.800781 3 L 9.300781 2.601562 L 9 6.699219 C 9 6.699219 8 6.601562 8.101562 6.601562 Z M 12.199219 6.101562 L 9.398438 5.699219 L 9.5 3.699219 L 10.699219 3.800781 L 10.800781 2.800781 L 11.699219 2.898438 L 11.601562 3.898438 L 12.300781 4 Z M 17.5 21.199219 L 17.898438 21 L 16.101562 18.699219 Z M 17.601562 5.199219 L 15.5 5.300781 L 15.5 6 L 16.101562 6.101562 L 16 5.601562 Z M 17.601562 5.199219 "/>
</g>
</svg>
