<?xml version="1.0" encoding="UTF-8"?>
<svg xmlns="http://www.w3.org/2000/svg" xmlns:xlink="http://www.w3.org/1999/xlink" width="44pt" height="18pt" viewBox="0 0 44 18" version="1.1">
<g id="surface1">
<path style=" stroke:none;fill-rule:nonzero;fill:rgb(0%,0%,0%);fill-opacity:1;" d="M 43.550781 8.601562 L 35.148438 0.199219 C 34.949219 0 34.550781 0 34.351562 0.199219 C 34.148438 0.398438 34.148438 0.800781 34.351562 1 L 41.851562 8.5 L 17.25 8.5 C 16.949219 8.5 16.648438 8.800781 16.648438 9.101562 C 16.648438 9.398438 16.949219 9.699219 17.25 9.699219 L 41.75 9.699219 L 34.351562 17 C 34.148438 17.199219 34.148438 17.601562 34.351562 17.800781 C 34.449219 17.898438 34.648438 18 34.75 18 C 34.851562 18 35.050781 17.898438 35.148438 17.800781 L 43.550781 9.398438 C 43.75 9.199219 43.75 8.800781 43.550781 8.601562 Z M 43.550781 8.601562 "/>
</g>
</svg>
