<?xml version="1.0" encoding="UTF-8"?>
<svg xmlns="http://www.w3.org/2000/svg" xmlns:xlink="http://www.w3.org/1999/xlink" width="23pt" height="31pt" viewBox="0 0 23 31" version="1.1">
<g id="surface1">
<path style=" stroke:none;fill-rule:nonzero;fill:rgb(38.039216%,9.803922%,7.843137%);fill-opacity:1;" d="M 22.398438 9.5 C 22 8.898438 21.601562 8.601562 21.101562 8.300781 C 20.300781 7.699219 19.398438 7.398438 18.398438 7.101562 C 17.199219 6.699219 16 6.5 14.699219 6.300781 C 13.800781 6.199219 12.898438 6.101562 12 6 C 12 6 11.898438 6 11.898438 6 L 11.199219 6 C 11.199219 6 11.101562 6 11.101562 6 C 10 6 8.898438 6.101562 7.699219 6.300781 C 6.101562 6.5 4.5 6.898438 3 7.601562 C 2.300781 7.898438 1.699219 8.300781 1.101562 8.800781 C 0.699219 9.199219 0.398438 9.601562 0.199219 10.101562 C 0.199219 10.300781 0.101562 10.5 0.101562 10.601562 L 0.101562 10.800781 C 0.101562 11.199219 0.199219 11.5 0.199219 11.898438 C 0.398438 13.601562 0.800781 15.199219 1.398438 16.699219 L 2.199219 15.699219 L 4 17.199219 L 5.398438 15.800781 L 6.699219 17.199219 L 8.199219 15.800781 L 9.601562 17.199219 L 11.199219 15.800781 L 12.898438 17.199219 L 14.398438 15.800781 L 16 17.199219 L 17.5 15.800781 L 18.898438 17.199219 L 20.699219 15.398438 L 21.601562 16.5 C 21.699219 16.101562 21.898438 15.800781 22 15.398438 C 22.398438 14.199219 22.601562 12.898438 22.699219 11.5 C 22.699219 11.199219 22.800781 11 22.800781 10.699219 C 22.800781 10.199219 22.601562 9.800781 22.398438 9.5 Z M 21.898438 11.300781 C 21.699219 11.601562 21.5 11.898438 21.300781 12.101562 C 20.699219 12.601562 20.101562 13 19.398438 13.199219 C 18.5 13.601562 17.601562 13.800781 16.699219 14 C 16 14.101562 15.300781 14.300781 14.601562 14.398438 C 13.398438 14.601562 12.199219 14.601562 11 14.601562 C 10.300781 14.601562 9.5 14.5 8.800781 14.5 C 7.300781 14.300781 5.800781 14.101562 4.300781 13.5 C 3.5 13.199219 2.800781 12.898438 2.101562 12.398438 C 1.800781 12.199219 1.5 11.898438 1.300781 11.601562 C 1 11.101562 1 10.699219 1.300781 10.199219 C 1.601562 9.800781 1.898438 9.5 2.199219 9.300781 C 2.898438 8.800781 3.699219 8.5 4.601562 8.199219 C 5.800781 7.800781 7 7.601562 8.199219 7.398438 C 9.398438 7.199219 10.601562 7.199219 11.601562 7.199219 C 13.199219 7.199219 14.699219 7.300781 16.101562 7.601562 C 17.398438 7.800781 18.800781 8.199219 20.101562 8.800781 C 20.699219 9.101562 21.199219 9.398438 21.699219 9.898438 C 21.898438 10.101562 22 10.300781 22.101562 10.5 C 22.101562 10.601562 22.101562 10.898438 21.898438 11.300781 Z M 20.699219 16.199219 L 19 17.898438 L 17.601562 16.5 L 16 17.898438 L 14.398438 16.5 L 12.898438 17.898438 L 11.199219 16.5 L 9.601562 17.898438 L 8.199219 16.5 L 6.699219 17.898438 L 5.398438 16.5 L 4 17.898438 L 2.398438 16.5 L 1.800781 17.300781 C 2 17.898438 2.300781 18.5 2.601562 19 C 2.699219 19.101562 2.699219 19.199219 2.800781 19.300781 C 4.898438 20.101562 12.601562 22.699219 20.398438 19.101562 C 20.800781 18.5 21.101562 17.800781 21.398438 17.101562 Z M 11.699219 21.601562 C 8 21.601562 4.898438 20.699219 3.300781 20.101562 C 4.898438 22.300781 6.800781 23.800781 9.101562 24.398438 C 10.398438 24.800781 11.699219 24.800781 13 24.601562 C 15.699219 24.101562 18 22.5 19.800781 19.898438 C 17 21.199219 14.199219 21.601562 11.699219 21.601562 Z M 11.699219 21.601562 "/>
</g>
</svg>
