<?xml version="1.0" encoding="UTF-8"?>
<svg xmlns="http://www.w3.org/2000/svg" xmlns:xlink="http://www.w3.org/1999/xlink" width="23pt" height="23pt" viewBox="0 0 23 23" version="1.1">
<g id="surface1">
<path style=" stroke:none;fill-rule:nonzero;fill:rgb(37.647059%,10.196078%,9.019608%);fill-opacity:1;" d="M 22.300781 6.5 C 22.300781 4.199219 20.398438 2.398438 18.199219 2.398438 L 7.800781 2.398438 C 7.601562 2.398438 7.5 2.5 7.5 2.699219 C 7.398438 2.800781 7.601562 3 7.800781 3 L 18.199219 3 C 20.101562 3 21.699219 4.601562 21.699219 6.5 C 21.699219 8.398438 20.101562 10 18.199219 10 L 14.800781 10 C 14.101562 7.898438 12.101562 6.300781 9.800781 6.300781 C 7.5 6.300781 5.5 7.800781 4.800781 9.898438 C 2.800781 9.898438 1.300781 8.300781 1.300781 6.5 C 1.300781 4.5 2.898438 3 4.800781 3 L 6.101562 3 C 6.300781 3 6.398438 2.898438 6.398438 2.699219 C 6.398438 2.5 6.300781 2.398438 6.101562 2.398438 L 4.800781 2.398438 C 2.5 2.398438 0.699219 4.300781 0.699219 6.5 C 0.699219 8.699219 2.398438 10.5 4.5 10.601562 C 4.398438 10.898438 4.398438 11.300781 4.398438 11.601562 C 4.398438 12.398438 4.601562 13.101562 4.898438 13.800781 C 5 14 5.199219 14 5.300781 14 C 5.5 13.898438 5.5 13.699219 5.5 13.601562 C 5.199219 12.898438 5 12.300781 5 11.601562 C 5 11.199219 5 10.898438 5.101562 10.601562 L 12.800781 10.601562 C 13 10.601562 13.101562 10.5 13.101562 10.300781 C 13.101562 10.101562 13 10 12.898438 10 L 5.398438 10 C 6.101562 8.199219 7.800781 7 9.800781 7 C 12.398438 7 14.5 9.101562 14.5 11.699219 C 14.5 14.300781 12.398438 16.398438 9.800781 16.398438 C 8.5 16.398438 7.199219 15.800781 6.300781 14.800781 C 6.199219 14.699219 6 14.699219 5.898438 14.800781 C 5.800781 14.898438 5.800781 15.101562 5.898438 15.199219 C 6.898438 16.398438 8.398438 17 9.898438 17 C 11 17 12 16.699219 12.898438 16.101562 L 13.800781 17 C 13.601562 17.199219 13.601562 17.601562 13.800781 17.800781 L 16.300781 20.300781 C 16.601562 20.601562 17 20.800781 17.398438 20.800781 C 17.800781 20.800781 18.199219 20.601562 18.5 20.300781 C 18.800781 20 19 19.601562 19 19.199219 C 19 18.800781 18.800781 18.398438 18.5 18.101562 L 16 15.601562 C 15.898438 15.5 15.699219 15.398438 15.601562 15.398438 C 15.5 15.398438 15.300781 15.398438 15.199219 15.5 L 14.300781 14.601562 C 14.898438 13.800781 15.199219 12.699219 15.199219 11.601562 C 15.199219 11.300781 15.199219 10.898438 15.101562 10.601562 L 18.300781 10.601562 C 20.5 10.601562 22.300781 8.699219 22.300781 6.5 Z M 17.898438 18.398438 C 18.101562 18.601562 18.199219 18.800781 18.199219 19.101562 C 18.199219 19.398438 18.101562 19.601562 17.898438 19.800781 C 17.699219 20 17.5 20.101562 17.199219 20.101562 C 16.898438 20.101562 16.699219 20 16.5 19.800781 L 14 17.300781 L 15.300781 16 Z M 14.601562 15.898438 L 14 16.5 L 13.199219 15.699219 C 13.398438 15.5 13.601562 15.300781 13.800781 15.101562 Z M 14.601562 15.898438 "/>
<path style=" stroke:none;fill-rule:nonzero;fill:rgb(37.647059%,10.196078%,9.019608%);fill-opacity:1;" d="M 3.398438 6.5 C 3.398438 6.722656 3.222656 6.898438 3 6.898438 C 2.777344 6.898438 2.601562 6.722656 2.601562 6.5 C 2.601562 6.277344 2.777344 6.101562 3 6.101562 C 3.222656 6.101562 3.398438 6.277344 3.398438 6.5 Z M 3.398438 6.5 "/>
<path style=" stroke:none;fill-rule:nonzero;fill:rgb(37.647059%,10.196078%,9.019608%);fill-opacity:1;" d="M 4.699219 6.5 C 4.699219 6.722656 4.519531 6.898438 4.300781 6.898438 C 4.078125 6.898438 3.898438 6.722656 3.898438 6.5 C 3.898438 6.277344 4.078125 6.101562 4.300781 6.101562 C 4.519531 6.101562 4.699219 6.277344 4.699219 6.5 Z M 4.699219 6.5 "/>
<path style=" stroke:none;fill-rule:nonzero;fill:rgb(37.647059%,10.196078%,9.019608%);fill-opacity:1;" d="M 6 6.5 C 6 6.722656 5.820312 6.898438 5.601562 6.898438 C 5.378906 6.898438 5.199219 6.722656 5.199219 6.5 C 5.199219 6.277344 5.378906 6.101562 5.601562 6.101562 C 5.820312 6.101562 6 6.277344 6 6.5 Z M 6 6.5 "/>
<path style=" stroke:none;fill-rule:nonzero;fill:rgb(37.647059%,10.196078%,9.019608%);fill-opacity:1;" d="M 20.601562 6.5 C 20.601562 5 19.398438 3.800781 17.898438 3.800781 C 16.398438 3.800781 15.199219 5 15.199219 6.5 C 15.199219 8 16.398438 9.199219 17.898438 9.199219 C 19.398438 9.101562 20.601562 7.898438 20.601562 6.5 Z M 15.898438 6.5 C 15.898438 5.398438 16.800781 4.398438 18 4.398438 C 19.101562 4.398438 20.101562 5.300781 20.101562 6.5 C 20.101562 7.699219 19.101562 8.5 18 8.5 C 16.800781 8.5 15.898438 7.601562 15.898438 6.5 Z M 15.898438 6.5 "/>
<path style=" stroke:none;fill-rule:nonzero;fill:rgb(37.647059%,10.196078%,9.019608%);fill-opacity:1;" d="M 18.898438 5.699219 C 18.800781 5.601562 18.601562 5.601562 18.5 5.699219 L 17.699219 6.5 L 17.398438 6.199219 C 17.300781 6.101562 17.101562 6.101562 17 6.199219 C 16.898438 6.300781 16.898438 6.5 17 6.601562 L 17.601562 7.199219 C 17.699219 7.300781 17.699219 7.300781 17.800781 7.300781 C 17.898438 7.300781 18 7.300781 18 7.199219 L 19.101562 6.101562 C 19.101562 6 19.101562 5.800781 18.898438 5.699219 Z M 18.898438 5.699219 "/>
</g>
</svg>
