<?xml version="1.0" encoding="UTF-8"?>
<svg xmlns="http://www.w3.org/2000/svg" xmlns:xlink="http://www.w3.org/1999/xlink" width="23pt" height="23pt" viewBox="0 0 23 23" version="1.1">
<g id="surface1">
<path style=" stroke:none;fill-rule:evenodd;fill:rgb(37.647059%,10.196078%,9.019608%);fill-opacity:1;" d="M 11.5 2 C 17.398438 2 22.300781 6.898438 22.300781 12.800781 C 22.300781 16 20.800781 19 18.5 21 C 18.101562 20.800781 17.101562 20.199219 16.398438 19.898438 C 15.601562 19.398438 14.601562 18.800781 14.398438 18.5 C 14.199219 18.101562 14.398438 16.800781 14.398438 16.800781 C 14.398438 16.800781 15 15.800781 15.199219 15.300781 C 15.398438 14.800781 15.5 14.300781 15.5 14.300781 C 15.5 14.300781 15.5 14.300781 15.800781 13.898438 C 16.101562 13.601562 16.5 11.601562 16.5 11.199219 C 16.398438 10.800781 15.800781 10.800781 15.800781 10.800781 C 15.800781 10.800781 16.199219 9.199219 15.601562 7.398438 C 14.699219 4.199219 8.398438 4.199219 7.398438 7.398438 C 6.898438 9.199219 7.199219 10.800781 7.199219 10.800781 C 7.199219 10.800781 6.601562 10.800781 6.601562 11.199219 C 6.601562 11.601562 7 13.601562 7.199219 13.898438 C 7.5 14.300781 7.5 14.300781 7.5 14.300781 C 7.5 14.300781 7.699219 14.800781 7.898438 15.300781 C 8.101562 15.800781 8.699219 16.800781 8.699219 16.800781 C 8.699219 16.800781 8.800781 18.199219 8.601562 18.5 C 8.5 18.800781 7.5 19.300781 6.601562 19.898438 C 5.898438 20.199219 4.898438 20.699219 4.5 21 C 2.199219 19 0.699219 16 0.699219 12.800781 C 0.699219 6.898438 5.601562 2 11.5 2 Z M 11.5 2 "/>
</g>
</svg>
